Coordinates
version=1
nRows=13
nColumns=36
inDegrees=yes

Units are S.I. units (second, meters, Newtons, ...)
If the header above contains a line with 'inDegrees', this indicates whether rotational values are in degrees (yes) or radians (no).

endheader
time	pelvis_tilt	pelvis_list	pelvis_rotation	pelvis_tx	pelvis_ty	pelvis_tz	hip_flexion_r	hip_adduction_r	hip_rotation_r	knee_angle_r	knee_angle_r_beta	ankle_angle_r	subtalar_angle_r	mtp_angle_r	hip_flexion_l	hip_adduction_l	hip_rotation_l	knee_angle_l	knee_angle_l_beta	ankle_angle_l	subtalar_angle_l	mtp_angle_l	lumbar_extension	lumbar_bending	lumbar_rotation	arm_flex_r	arm_add_r	arm_rot_r	elbow_flex_r	pro_sup_r	arm_flex_l	arm_add_l	arm_rot_l	elbow_flex_l	pro_sup_l
      0.00000000	      3.53219082	     -1.64061589	      4.47106951	     -0.12180583	      1.02068722	     -0.24313158	     17.62301265	      2.59429855	     -5.68264996	      0.92878656	      0.01621038	      3.64331137	      7.16764302	     -5.32938787	    -15.81344885	      1.50584575	      7.45806735	     16.06319544	      0.28035565	     22.61816605	      4.31918301	     -5.32938787	     -7.30914651	      2.62591129	     -9.47269135	    -14.19825149	     -7.68729406	      0.29588076	     23.21549027	     96.12163924	      8.38401958	    -14.99711417	      2.39368838	     63.61840637	     91.44313778
      0.01000000	      3.86409130	     -2.13017936	      4.56083437	     -0.10669515	      1.02077283	     -0.24162252	     16.72632210	      3.32429089	     -5.52162862	      1.14526230	      0.01998860	      2.92057171	      6.86870336	     -5.35122962	    -16.16044413	      0.79266218	      6.81913465	     17.63893528	      0.30785750	     21.62942034	      4.01238439	     -5.35122962	     -7.37519142	      3.22870562	     -9.46260962	    -14.37515023	     -7.79539557	      0.43299104	     23.09597147	     96.38431380	      7.76098393	    -14.80840994	      2.53031794	     63.48594251	     91.67923000
      0.02000000	      4.11464154	     -2.58978185	      4.59841140	     -0.09165557	      1.02085369	     -0.23993693	     15.84199586	      4.11107979	     -4.31848314	      1.18801061	      0.02073470	      0.90555073	      4.41579419	     -5.45597614	    -16.39423751	      0.10625263	      6.23937616	     19.25500894	      0.33606330	     20.70977307	      4.02141721	     -5.45597614	     -7.38767088	      3.77926155	     -9.61767499	    -14.39510109	     -7.86457403	      0.27865506	     22.88548715	     97.68853803	      6.88030345	    -14.51237201	      1.95346163	     63.48055225	     93.00266762
      0.03000000	      4.37988659	     -3.02421156	      4.69631373	     -0.07641713	      1.02111338	     -0.23836974	     15.03133469	      4.77151142	     -4.33058671	      1.44138361	      0.02515689	      0.05778692	      4.23997709	     -5.48194836	    -16.49750247	     -0.57604191	      5.61982468	     21.09758238	      0.36822228	     19.41404131	      3.70308396	     -5.48194836	     -7.34096974	      4.32698663	     -9.66403781	    -14.56069260	     -7.91786254	      0.09481996	     22.84339472	     97.86562524	      6.17383358	    -14.29081860	      1.94103894	     63.19543294	     93.21730746
      0.04000000	      4.60509306	     -3.45399448	      4.71270789	     -0.06118623	      1.02162139	     -0.23657594	     14.27334286	      5.45859535	     -4.19626337	      1.70357017	      0.02973291	     -1.19488929	      3.63824967	     -5.51456235	    -16.41280769	     -1.28054470	      4.84761792	     23.12493146	      0.40360619	     17.72484009	      3.45434218	     -5.51456235	     -7.29262080	      4.83155110	     -9.64367529	    -14.65056453	     -7.92665517	     -0.24274157	     22.90987438	     98.06386115	      5.35503551	    -13.95438902	      1.76539763	     62.87770337	     93.48042394
      0.05000000	      4.92983832	     -3.73712294	      4.71231407	     -0.04614461	      1.02250718	     -0.23468141	     13.43527376	      5.97975507	     -3.99579053	      2.11671364	      0.03694362	     -1.88999937	      3.38228914	     -5.53046009	    -16.24986270	     -1.83260754	      4.26700739	     25.45546131	      0.44428161	     15.95816749	      3.35270392	     -5.53046009	     -7.39129140	      5.16029262	     -9.51950608	    -14.72305613	     -7.89825701	     -0.39881852	     22.98296649	     98.11001571	      4.65069028	    -13.65999784	      1.67549997	     62.52541630	     93.54161105
      0.06000000	      4.98417629	     -4.14880830	      4.46402987	     -0.03098440	      1.02336555	     -0.23235201	     12.74539649	      6.75926434	     -2.59699540	      2.21365528	      0.03863557	     -4.06256554	      0.59985437	     -5.64122996	    -15.59622120	     -2.54526415	      3.05777039	     28.04546213	      0.48948565	     13.50159345	      2.87979936	     -5.64122996	     -7.15588953	      5.62563997	     -9.28899888	    -14.81795230	     -7.83111693	     -1.56422789	     23.35726457	     98.83909671	      3.66864158	    -13.16563053	      1.06179233	     61.93100705	     94.57740807
      0.07000000	      5.21270976	     -4.51458881	      4.21628131	     -0.01615049	      1.02469839	     -0.23003272	     12.02138069	      7.40677779	     -2.16837610	      2.68544490	      0.04686986	     -4.85497076	      0.01781395	     -6.05947009	    -14.89734193	     -3.26490727	      1.94442238	     30.97268365	      0.54057531	     11.05014309	      2.74628495	     -6.05947009	     -7.17427912	      6.04965017	     -8.77262225	    -14.93726689	     -7.73036905	     -2.78469460	     23.68797699	    101.23168854	      3.04256451	    -12.74267744	      0.89754706	     60.79480337	     97.76383591
      0.08000000	      5.47862710	     -4.90499249	      3.96945261	     -0.00159324	      1.02630597	     -0.22768326	     11.29466282	      8.05759683	     -1.99007577	      3.29970141	      0.05759065	     -5.07048882	     -0.04469372	     -6.07981613	    -14.00027332	     -4.05753365	      0.91047836	     34.19565332	      0.59682674	      8.42918741	      2.55564446	     -6.07981613	     -7.27266210	      6.49130289	     -8.39932776	    -14.79217080	     -7.77918297	     -2.75759068	     23.88004785	    101.18566561	      2.26283768	    -12.32355836	      0.67111055	     60.07535707	     97.64778605
      0.09000000	      5.76015839	     -5.28933769	      3.70049416	      0.01252125	      1.02808412	     -0.22534707	     10.51417479	      8.71006226	     -1.64928574	      3.87363672	      0.06760771	     -4.99681545	     -0.22508562	     -6.09523599	    -12.86385502	     -4.86925375	      0.00135868	     37.73668485	      0.65862940	      5.70542872	      2.29944630	     -6.09523599	     -7.47168774	      6.92192793	     -7.93999430	    -14.55658862	     -7.82953059	     -2.74110726	     24.10761353	    101.13459142	      1.54432864	    -11.85666231	      0.42254169	     59.32000986	     97.51891207
      0.10000000	      5.69427203	     -5.60456302	      3.35938869	      0.02607764	      1.02955080	     -0.22309058	     10.13823316	      9.28352271	     -0.91029921	      4.53540608	      0.07915777	     -5.12117575	     -0.98169889	     -6.13084633	    -11.10831008	     -5.46759108	     -0.53456442	     41.50073397	      0.72432445	      2.28848708	      0.86495561	     -6.13084633	     -7.31562114	      7.26901631	     -7.46888213	    -14.30845376	     -7.90908036	     -2.76780578	     24.45352092	    101.13398925	      0.87329893	    -11.26324364	     -0.10046749	     58.24794277	     97.43182394
      0.11000000	      6.01050120	     -6.04535720	      3.15521730	      0.03933731	      1.03147159	     -0.22096210	      9.18211355	     10.00198010	     -0.38443375	      4.87577563	      0.08509834	     -4.68060200	     -1.24377649	     -6.14654586	     -9.56964149	     -6.37022783	     -1.08979124	     45.39588076	      0.79230759	     -0.76547688	      0.43172723	     -6.14654586	     -7.68419334	      7.78141782	     -7.02270483	    -13.87715479	     -7.98262029	     -2.74064821	     24.70253510	    101.13038067	      0.21794494	    -10.79259638	     -0.33279394	     57.40085582	     97.34663756
      0.12000000	      6.01052068	     -6.34395210	      2.93826086	      0.05200282	      1.03307832	     -0.21914628	      8.55937449	     10.53839033	      0.31493177	      5.19454771	      0.09066196	     -4.45252643	     -1.90756036	     -6.19207106	     -7.51092461	     -6.88165986	     -1.11587031	     49.30540947	      0.86054173	     -4.71290840	     -1.66076803	     -6.19207106	     -7.73296805	      8.14090020	     -6.63024165	    -13.40783271	     -8.09289971	     -2.68248104	     25.03412233	    101.06525255	     -0.35242205	    -10.23477115	     -0.77160197	     56.30363596	     97.25224209
